Coordinates
version=1
nRows=13
nColumns=30
inDegrees=yes

Units are S.I. units (second, meters, Newtons, ...)
Angles are in degrees.

endheader
time	floatyaw	floatroll	floatpitch	floatx	floaty	floatz	pro_sup_l	deviation_l	flexion_l	cmc_flexion_l	cmc_abduction_l	mp_flexion_l	ip_flexion_l	2mcp_flexion_l	2mcp_abduction_l	2pm_flexion_l	2md_flexion_l	3mcp_flexion_l	3mcp_abduction_l	3pm_flexion_l	3md_flexion_l	4mcp_flexion_l	4mcp_abduction_l	4pm_flexion_l	4md_flexion_l	5mcp_flexion_l	5mcp_abduction_l	5pm_flexion_l	5md_flexion_l
0.005000	3.307552	-2.313296	98.008251	0.003018	-0.117459	0.025387	106.727785	15.367633	-15.276753	23.874640	35.281381	-17.783614	-36.791649	21.152692	2.201553	47.218838	31.302297	25.925836	4.766426	40.029985	25.492765	17.696107	-3.050175	51.411634	34.144318	13.441171	-5.980963	51.133895	35.949898
0.015000	3.307552	-2.313296	98.008251	0.013819	-0.115401	0.029654	108.688773	15.830026	-14.639394	24.108574	37.034427	-17.356029	-36.982305	21.195649	2.264222	47.165833	31.247256	26.747415	4.768399	39.506064	25.605509	19.326191	-3.144343	50.145987	33.848585	13.574852	-5.973107	50.838973	35.934079
0.025000	3.307552	-2.313296	98.008251	0.024105	-0.114397	0.033401	109.970744	16.317704	-13.382897	23.700647	38.147365	-17.153001	-37.251442	22.083339	2.501660	47.646787	31.537046	28.146077	4.814141	39.824820	26.328849	21.733458	-3.334278	49.589147	34.106334	14.489273	-6.055876	51.021564	36.172571
0.035000	3.307552	-2.313296	98.008251	0.033516	-0.114275	0.036422	110.370069	17.004373	-11.756413	22.478011	38.854510	-17.106170	-37.605236	23.908604	2.911717	48.835808	32.271411	30.133287	4.926575	41.328366	27.816428	24.867194	-3.592627	50.207285	35.136384	16.247816	-6.266474	52.054791	36.824620
0.045000	3.307552	-2.313296	98.008251	0.041687	-0.114771	0.038561	109.769145	17.967126	-9.986350	20.449240	39.439395	-17.071300	-37.992673	26.559596	3.457029	50.713497	33.474194	32.601250	5.101727	44.038708	30.067875	28.544113	-3.873990	52.117663	36.997131	18.731754	-6.603335	54.104224	37.980641
0.055000	3.307552	-2.313296	98.008251	0.048313	-0.115564	0.039772	108.209830	19.157970	-8.242340	17.845604	40.122822	-16.900596	-38.325127	29.700650	4.067177	53.033628	35.061388	35.312919	5.310823	47.596450	32.890709	32.442493	-4.126008	55.011834	39.534020	21.648010	-7.017834	57.023899	39.600583
0.065000	3.307552	-2.313296	98.008251	0.053231	-0.116331	0.040138	105.934150	20.435302	-6.648507	15.067087	40.981993	-16.523690	-38.524094	32.857313	4.651373	55.383310	36.843651	37.953811	5.516195	51.361030	35.936605	36.157965	-4.306542	58.271673	42.414240	24.599788	-7.426875	60.386677	41.505670
0.075000	3.307552	-2.313296	98.008251	0.056474	-0.116787	0.039838	103.341351	21.633222	-5.313935	12.549209	41.943540	-15.986910	-38.568726	35.578002	5.119503	57.322213	38.572930	40.236303	5.690515	54.635229	38.803623	39.319310	-4.399068	61.218318	45.237064	27.210166	-7.742181	63.632476	43.431005
0.085000	3.307552	-2.313296	98.008251	0.058264	-0.116713	0.039092	100.865601	22.629657	-4.344705	10.615612	42.847881	-15.425683	-38.511151	37.596343	5.404510	58.528292	40.013261	42.005658	5.827247	56.900341	41.156801	41.711404	-4.416580	63.358590	47.665268	29.248271	-7.903020	66.256508	45.112743
0.095000	3.307552	-2.313296	98.008251	0.058953	-0.115945	0.038098	98.837154	23.382181	-3.818245	9.390048	43.540089	-14.989154	-38.447235	38.912408	5.477628	58.872092	41.001213	43.288137	5.937532	57.945769	42.812071	43.337795	-4.391129	64.505357	49.514634	30.692457	-7.896295	67.946311	46.366774
0.105000	3.307552	-2.313296	98.008251	0.058930	-0.114372	0.037012	97.400502	23.923775	-3.736976	8.802345	43.936640	-14.764694	-38.460984	39.752593	5.352050	58.400398	41.474579	44.254318	6.038026	57.853806	43.756452	44.390250	-4.355953	64.740116	50.769858	31.697057	-7.755005	68.621613	47.127833
0.115000	3.307552	-2.313296	98.008251	0.058543	-0.111963	0.035953	96.520520	24.331610	-4.000975	8.666771	44.044666	-14.744161	-38.580055	40.432677	5.076254	57.273587	41.470875	45.119797	6.138477	56.890271	44.114217	45.145781	-4.331396	64.283606	51.539593	32.487408	-7.538237	68.394450	47.445191
0.125000	3.307552	-2.313296	98.008251	0.058045	-0.108824	0.035012	96.052219	24.688988	-4.429071	8.778522	43.941764	-14.843617	-38.772150	41.197820	4.720697	55.711745	41.107611	46.037029	6.235904	55.385361	44.087802	45.845668	-4.321543	63.373176	51.988524	33.246012	-7.304441	67.498391	47.450309
